<svg width="1440" height="900" viewBox="0 0 1440 900" fill="none" xmlns="http://www.w3.org/2000/svg">
<g opacity="0.7">
<path d="M927.616 795.065L1458.25 983.159" stroke="#FF0000" stroke-width="55.7408" stroke-linecap="round" stroke-linejoin="round"/>
<path d="M1103.17 274.775L1633.8 462.869" stroke="#FF0000" stroke-width="55.7408" stroke-linecap="round" stroke-linejoin="round"/>
<path d="M922.363 793.203L399.612 607.903L1103.17 274.776L922.363 793.203Z" stroke="#FF0000" stroke-width="55.7408" stroke-linecap="round" stroke-linejoin="round"/>
<path d="M2163.5 653.59L1447.11 989.56" stroke="#0047FF" stroke-width="55.7408" stroke-linecap="round" stroke-linejoin="round"/>
<path d="M1633.8 462.869L1450.37 980.366" stroke="#0047FF" stroke-width="55.7408" stroke-linecap="round" stroke-linejoin="round"/>
<path d="M400.843 612.774L54.1153 -94.1293" stroke="#FF0000" stroke-width="55.7408" stroke-linecap="round" stroke-linejoin="round"/>
<path d="M739.688 1316.88L399.613 607.903" stroke="#FF0000" stroke-width="55.7408" stroke-linecap="round" stroke-linejoin="round"/>
<path d="M580.423 89.4756L-123.138 422.603" stroke="#FF0000" stroke-width="55.7408" stroke-linecap="round" stroke-linejoin="round"/>
<path d="M1264.13 1505.74L924.058 796.761" stroke="#0047FF" stroke-width="55.7408" stroke-linecap="round" stroke-linejoin="round"/>
<path d="M-115.258 425.396L404.866 609.765" stroke="#0047FF" stroke-width="55.7408" stroke-linecap="round" stroke-linejoin="round"/>
<path d="M57.8389 -104.637L-128.392 420.74" stroke="#0047FF" stroke-width="55.7408" stroke-linecap="round" stroke-linejoin="round"/>
<path d="M921.432 795.83L737.063 1315.95" stroke="#0047FF" stroke-width="55.7408" stroke-linecap="round" stroke-linejoin="round"/>
</g>
</svg>
<svg width="5668" height="5773" viewBox="0 0 5668 5773" fill="none" xmlns="http://www.w3.org/2000/svg">
<g opacity="0.7">
<path d="M1566.74 4283.03L1970.07 4650.73" stroke="#FF0000" stroke-width="54.0383" stroke-linecap="round" stroke-linejoin="round"/>
<path d="M1919.35 3884.22L2322.68 4251.92" stroke="#FF0000" stroke-width="54.0383" stroke-linecap="round" stroke-linejoin="round"/>
<path d="M3088.26 4222.28L3452.32 3822.95L3483.6 4582.71L3088.26 4222.28Z" stroke="#FF0000" stroke-width="54.0383" stroke-linecap="round" stroke-linejoin="round"/>
<path d="M3413.05 3055.9L3048.99 3455.24L3013.71 2691.84L3413.05 3055.9Z" stroke="#FF0000" stroke-width="54.0383" stroke-linecap="round" stroke-linejoin="round"/>
<path d="M2943.17 1165.03L2543.83 800.969L3307.23 765.695L2943.17 1165.03Z" stroke="#FF0000" stroke-width="54.0383" stroke-linecap="round" stroke-linejoin="round"/>
<path d="M3706.57 1129.76L3307.23 765.695L4070.63 730.42L3706.57 1129.76Z" stroke="#FF0000" stroke-width="54.0383" stroke-linecap="round" stroke-linejoin="round"/>
<path d="M1562.74 4279.39L1165.4 3917.14L1919.35 3884.22L1562.74 4279.39Z" stroke="#FF0000" stroke-width="54.0383" stroke-linecap="round" stroke-linejoin="round"/>
<path d="M3111.82 4980.49L2361.95 5018.96" stroke="#0047FF" stroke-width="54.0383" stroke-linecap="round" stroke-linejoin="round"/>
<path d="M2718.03 4612.34L3121.36 4980.05" stroke="#0047FF" stroke-width="54.0383" stroke-linecap="round" stroke-linejoin="round"/>
<path d="M2724.19 4621.62L2365.59 5014.97" stroke="#0047FF" stroke-width="54.0383" stroke-linecap="round" stroke-linejoin="round"/>
<path d="M2724.19 4621.62L1957.71 4652.26" stroke="#0047FF" stroke-width="54.0383" stroke-linecap="round" stroke-linejoin="round"/>
<path d="M2322.68 4251.92L2726.01 4619.63" stroke="#0047FF" stroke-width="54.0383" stroke-linecap="round" stroke-linejoin="round"/>
<path d="M2322.68 4251.92L1964.08 4645.27" stroke="#0047FF" stroke-width="54.0383" stroke-linecap="round" stroke-linejoin="round"/>
<path d="M1114.39 3164.99L1083.75 2398.5" stroke="#0047FF" stroke-width="54.0383" stroke-linecap="round" stroke-linejoin="round"/>
<path d="M1484.09 2763.47L1116.39 3166.81" stroke="#0047FF" stroke-width="54.0383" stroke-linecap="round" stroke-linejoin="round"/>
<path d="M1484.09 2763.47L1090.74 2404.87" stroke="#0047FF" stroke-width="54.0383" stroke-linecap="round" stroke-linejoin="round"/>
<path d="M1114.39 3164.99L1083.75 2398.5" stroke="#0047FF" stroke-width="54.0383" stroke-linecap="round" stroke-linejoin="round"/>
<path d="M1484.09 2763.47L1116.39 3166.81" stroke="#0047FF" stroke-width="54.0383" stroke-linecap="round" stroke-linejoin="round"/>
<path d="M4899.48 2235.57L4544.51 2624.93" stroke="#FF0000" stroke-width="54.0383" stroke-linecap="round" stroke-linejoin="round"/>
<path d="M3483.6 4582.71L3119.54 4982.05" stroke="#FF0000" stroke-width="54.0383" stroke-linecap="round" stroke-linejoin="round"/>
<path d="M1198.5 4674.91L1601.83 5042.61" stroke="#FF0000" stroke-width="54.0383" stroke-linecap="round" stroke-linejoin="round"/>
<path d="M4542.69 2626.93L4930.05 2980.07" stroke="#FF0000" stroke-width="54.0383" stroke-linecap="round" stroke-linejoin="round"/>
<path d="M1484.09 2763.47L1090.74 2404.87" stroke="#0047FF" stroke-width="54.0383" stroke-linecap="round" stroke-linejoin="round"/>
<path d="M2645.01 3094.26L2614.38 2327.77" stroke="#0047FF" stroke-width="54.0383" stroke-linecap="round" stroke-linejoin="round"/>
<path d="M3015.71 2693.66L2648.01 3096.99" stroke="#0047FF" stroke-width="54.0383" stroke-linecap="round" stroke-linejoin="round"/>
<path d="M3014.71 2692.75L2621.36 2334.15" stroke="#0047FF" stroke-width="54.0383" stroke-linecap="round" stroke-linejoin="round"/>
<path d="M4869.48 1462.36L4900.12 2228.85" stroke="#0047FF" stroke-width="54.0383" stroke-linecap="round" stroke-linejoin="round"/>
<path d="M4512.53 1849.9L4867.49 1460.54" stroke="#0047FF" stroke-width="54.0383" stroke-linecap="round" stroke-linejoin="round"/>
<path d="M4507.06 1855.89L4894.42 2209.03" stroke="#0047FF" stroke-width="54.0383" stroke-linecap="round" stroke-linejoin="round"/>
<path d="M4468.15 1096.48L3706.57 1129.76" stroke="#0047FF" stroke-width="54.0383" stroke-linecap="round" stroke-linejoin="round"/>
<path d="M4930.4 2987.7L4180.27 3020.45" stroke="#0047FF" stroke-width="54.0383" stroke-linecap="round" stroke-linejoin="round"/>
<path d="M4936.04 2985.53L4900.12 2228.85" stroke="#0047FF" stroke-width="54.0383" stroke-linecap="round" stroke-linejoin="round"/>
<path d="M3454.14 3820.95L3417.05 3059.54" stroke="#0047FF" stroke-width="54.0383" stroke-linecap="round" stroke-linejoin="round"/>
<path d="M4107.73 1491.83L4070.63 730.42" stroke="#FF0000" stroke-width="54.0383" stroke-linecap="round" stroke-linejoin="round"/>
<path d="M1164.67 3921.96L1120.85 3159.91" stroke="#FF0000" stroke-width="54.0383" stroke-linecap="round" stroke-linejoin="round"/>
<path d="M1202.5 4678.55L1165.4 3917.14" stroke="#FF0000" stroke-width="54.0383" stroke-linecap="round" stroke-linejoin="round"/>
<path d="M4577.61 3382.69L4542.69 2626.93" stroke="#FF0000" stroke-width="54.0383" stroke-linecap="round" stroke-linejoin="round"/>
<path d="M1522.01 3521.97L768.06 3554.9" stroke="#FF0000" stroke-width="54.0383" stroke-linecap="round" stroke-linejoin="round"/>
<path d="M4573.97 3386.69L3814.39 3421.79" stroke="#FF0000" stroke-width="54.0383" stroke-linecap="round" stroke-linejoin="round"/>
<path d="M3814.39 3421.79L3052.98 3458.88" stroke="#FF0000" stroke-width="54.0383" stroke-linecap="round" stroke-linejoin="round"/>
<path d="M1600.01 5044.61L1562.92 4283.2" stroke="#0047FF" stroke-width="54.0383" stroke-linecap="round" stroke-linejoin="round"/>
<path d="M4468.15 1096.48L4867.49 1460.54" stroke="#0047FF" stroke-width="54.0383" stroke-linecap="round" stroke-linejoin="round"/>
<path d="M4107.73 1491.83L4507.07 1855.89" stroke="#0047FF" stroke-width="54.0383" stroke-linecap="round" stroke-linejoin="round"/>
<path d="M3816.38 3423.61L4209.73 3782.21" stroke="#0047FF" stroke-width="54.0383" stroke-linecap="round" stroke-linejoin="round"/>
<path d="M774.05 3560.36L1169.39 3920.78" stroke="#0047FF" stroke-width="54.0383" stroke-linecap="round" stroke-linejoin="round"/>
<path d="M811.145 4321.76L1200.5 4676.73" stroke="#0047FF" stroke-width="54.0383" stroke-linecap="round" stroke-linejoin="round"/>
<path d="M1128.13 3151.92L764.066 3551.26" stroke="#0047FF" stroke-width="54.0383" stroke-linecap="round" stroke-linejoin="round"/>
<path d="M3088.26 4222.28L2724.19 4621.62" stroke="#0047FF" stroke-width="54.0383" stroke-linecap="round" stroke-linejoin="round"/>
<path d="M3816.38 3423.61L3454.14 3820.95" stroke="#0047FF" stroke-width="54.0383" stroke-linecap="round" stroke-linejoin="round"/>
<path d="M4577.61 3382.69L4211.73 3784.03" stroke="#0047FF" stroke-width="54.0383" stroke-linecap="round" stroke-linejoin="round"/>
<path d="M1560.92 4281.38L1200.5 4676.73" stroke="#0047FF" stroke-width="54.0383" stroke-linecap="round" stroke-linejoin="round"/>
</g>
</svg>
