<svg width="336" height="496" viewBox="0 0 336 496" fill="none" xmlns="http://www.w3.org/2000/svg">
<path d="M5.53906 220.149H59.3585" stroke="white" stroke-width="10" stroke-linecap="round" stroke-linejoin="round"/>
<path d="M58.8194 435.696H5M5 435.696V489.515H58.8194L5 435.696Z" stroke="white" stroke-width="10" stroke-linecap="round" stroke-linejoin="round"/>
<path d="M221.086 5.27002L274.905 59.0895" stroke="white" stroke-width="10" stroke-linecap="round" stroke-linejoin="round"/>
<path d="M5.53906 112.774V166.459L59.3585 220.413M59.3585 220.413V166.459M59.3585 220.413L5.53906 274.098L59.3585 327.917V381.737" stroke="white" stroke-width="10" stroke-linecap="round" stroke-linejoin="round"/>
<path d="M5 328.056V381.876" stroke="white" stroke-width="10" stroke-linecap="round" stroke-linejoin="round"/>
<path d="M275.443 113.177V166.997L329.263 113.177" stroke="white" stroke-width="10" stroke-linecap="round" stroke-linejoin="round"/>
<path d="M276.25 7.96045L330.069 59.6271" stroke="white" stroke-width="10" stroke-linecap="round" stroke-linejoin="round"/>
<path d="M5.53896 61.5107L59.3584 113.177" stroke="white" stroke-width="10" stroke-linecap="round" stroke-linejoin="round"/>
<path d="M274.098 220.412H327.917L274.098 274.232V328.051H327.917V274.232" stroke="white" stroke-width="10" stroke-linecap="round" stroke-linejoin="round"/>
<path d="M274.097 381.875V435.695" stroke="white" stroke-width="10" stroke-linecap="round" stroke-linejoin="round"/>
<path d="M330.069 59.6265L276.25 59.6265" stroke="white" stroke-width="10" stroke-linecap="round" stroke-linejoin="round"/>
<path d="M327.916 381.875V435.695M327.916 435.695L274.097 489.514M327.916 435.695V489.514" stroke="white" stroke-width="10" stroke-linecap="round" stroke-linejoin="round"/>
<path d="M58.551 5.80762L5.4043 59.6271" stroke="white" stroke-width="10" stroke-linecap="round" stroke-linejoin="round"/>
<path d="M59.3585 59.6265L5.53906 112.639" stroke="white" stroke-width="10" stroke-linecap="round" stroke-linejoin="round"/>
<path d="M59.3576 274.371L5 328.056" stroke="white" stroke-width="10" stroke-linecap="round" stroke-linejoin="round"/>
<path d="M59.3576 382.145L5 435.83" stroke="white" stroke-width="10" stroke-linecap="round" stroke-linejoin="round"/>
<path d="M276.251 56.936L330.07 111.025" stroke="white" stroke-width="10" stroke-linecap="round" stroke-linejoin="round"/>
<path d="M274.098 166.598L327.917 220.418" stroke="white" stroke-width="10" stroke-linecap="round" stroke-linejoin="round"/>
<path d="M274.098 220.412L327.917 274.232" stroke="white" stroke-width="10" stroke-linecap="round" stroke-linejoin="round"/>
<path d="M274.098 436.233L327.917 490.053" stroke="white" stroke-width="10" stroke-linecap="round" stroke-linejoin="round"/>
<path d="M5.27051 113.042H59.3591" stroke="white" stroke-width="10" stroke-linecap="round" stroke-linejoin="round"/>
<path d="M5.53906 166.329H59.3585" stroke="white" stroke-width="10" stroke-linecap="round" stroke-linejoin="round"/>
<path d="M5.00098 381.875H59.3586" stroke="white" stroke-width="10" stroke-linecap="round" stroke-linejoin="round"/>
<path d="M5 328.594H59.3576" stroke="white" stroke-width="10" stroke-linecap="round" stroke-linejoin="round"/>
<path d="M275.443 112.102H329.263" stroke="white" stroke-width="10" stroke-linecap="round" stroke-linejoin="round"/>
<path d="M274.905 166.458H327.917" stroke="white" stroke-width="10" stroke-linecap="round" stroke-linejoin="round"/>
<path d="M5.00094 381.875L5.00098 434.887" stroke="white" stroke-width="10" stroke-linecap="round" stroke-linejoin="round"/>
<path d="M274.098 167.405L274.098 220.417" stroke="white" stroke-width="10" stroke-linecap="round" stroke-linejoin="round"/>
<path d="M276.25 59.3584L276.25 112.371" stroke="white" stroke-width="10" stroke-linecap="round" stroke-linejoin="round"/>
<path d="M327.917 328.459L274.098 382.01" stroke="white" stroke-width="10" stroke-linecap="round" stroke-linejoin="round"/>
<path d="M274.097 5L220.277 58.5503" stroke="white" stroke-width="10" stroke-linecap="round" stroke-linejoin="round"/>
<path d="M327.916 381.875L274.097 435.426" stroke="white" stroke-width="10" stroke-linecap="round" stroke-linejoin="round"/>
<path d="M274.098 328.324L274.098 381.067" stroke="white" stroke-width="10" stroke-linecap="round" stroke-linejoin="round"/>
<path d="M274.098 435.696H327.917" stroke="white" stroke-width="10" stroke-linecap="round" stroke-linejoin="round"/>
<path d="M112.37 59.3579L166.997 5.26936" stroke="white" stroke-width="10" stroke-linecap="round" stroke-linejoin="round"/>
<path d="M219.874 5.41979L166.13 59.1641" stroke="white" stroke-width="10" stroke-linecap="round" stroke-linejoin="round"/>
<path d="M166.996 5.27002L220.277 5.27003" stroke="white" stroke-width="10" stroke-linecap="round" stroke-linejoin="round"/>
<path d="M59.3594 59.3579L59.3594 5.00026" stroke="white" stroke-width="10" stroke-linecap="round" stroke-linejoin="round"/>
<path d="M59.3594 59.3579L112.372 59.3579" stroke="white" stroke-width="10" stroke-linecap="round" stroke-linejoin="round"/>
<path d="M112.908 5.26985L165.92 59.3584" stroke="white" stroke-width="10" stroke-linecap="round" stroke-linejoin="round"/>
<path d="M220.277 59.3584L220.277 5.26984" stroke="white" stroke-width="10" stroke-linecap="round" stroke-linejoin="round"/>
<path d="M59.3643 273.306L112.433 273.306" stroke="white" stroke-width="10" stroke-linecap="round" stroke-linejoin="round"/>
<path d="M166.862 273.85L221.292 273.992" stroke="white" stroke-width="10" stroke-linecap="round" stroke-linejoin="round"/>
<path d="M112.434 327.463L166.863 327.736" stroke="white" stroke-width="10" stroke-linecap="round" stroke-linejoin="round"/>
<path d="M166.862 273.85L166.862 327.463" stroke="white" stroke-width="10" stroke-linecap="round" stroke-linejoin="round"/>
<path d="M112.434 272.217L112.434 327.191" stroke="white" stroke-width="10" stroke-linecap="round" stroke-linejoin="round"/>
<path d="M221.292 327.191L274.905 273.306" stroke="white" stroke-width="10" stroke-linecap="round" stroke-linejoin="round"/>
<path d="M167.952 327.736L221.293 274.395" stroke="white" stroke-width="10" stroke-linecap="round" stroke-linejoin="round"/>
<path d="M112.433 327.191L58.8203 273.306" stroke="white" stroke-width="10" stroke-linecap="round" stroke-linejoin="round"/>
<path d="M274.905 328.279L221.292 274.394" stroke="white" stroke-width="10" stroke-linecap="round" stroke-linejoin="round"/>
</svg>
