<svg width="332" height="493" viewBox="0 0 332 493" fill="none" xmlns="http://www.w3.org/2000/svg">
<path d="M218.684 165.866H271.501" stroke="white" stroke-width="10" stroke-linecap="round" stroke-linejoin="round"/>
<path d="M111.44 325.659H165.599" stroke="white" stroke-width="10" stroke-linecap="round" stroke-linejoin="round"/>
<path d="M111.44 379.282H165.599" stroke="white" stroke-width="10" stroke-linecap="round" stroke-linejoin="round"/>
<path d="M109.563 433.44H163.722" stroke="white" stroke-width="10" stroke-linecap="round" stroke-linejoin="round"/>
<path d="M272.573 433.44H324.318" stroke="white" stroke-width="10" stroke-linecap="round" stroke-linejoin="round"/>
<path d="M272.306 111.708H326.464" stroke="white" stroke-width="10" stroke-linecap="round" stroke-linejoin="round"/>
<path d="M112.512 164.794H165.597" stroke="white" stroke-width="10" stroke-linecap="round" stroke-linejoin="round"/>
<path d="M111.44 112.244L165.062 111.972" stroke="white" stroke-width="10" stroke-linecap="round" stroke-linejoin="round"/>
<path d="M111.44 5.00098L165.062 5.00098" stroke="white" stroke-width="10" stroke-linecap="round" stroke-linejoin="round"/>
<path d="M164.525 273.11H218.684" stroke="white" stroke-width="10" stroke-linecap="round" stroke-linejoin="round"/>
<path d="M110.368 487.062H164.526" stroke="white" stroke-width="10" stroke-linecap="round" stroke-linejoin="round"/>
<path d="M111.44 218.952H165.599" stroke="white" stroke-width="10" stroke-linecap="round" stroke-linejoin="round"/>
<path d="M57.8174 57.5493L57.8174 4.99982" stroke="white" stroke-width="10" stroke-linecap="round" stroke-linejoin="round"/>
<path d="M165.061 164.794L165.061 111.976" stroke="white" stroke-width="10" stroke-linecap="round" stroke-linejoin="round"/>
<path d="M111.44 218.952L111.44 165.866" stroke="white" stroke-width="10" stroke-linecap="round" stroke-linejoin="round"/>
<path d="M272.306 433.439L272.306 380.354" stroke="white" stroke-width="10" stroke-linecap="round" stroke-linejoin="round"/>
<path d="M111.44 272.843L163.722 272.983" stroke="white" stroke-width="10" stroke-linecap="round" stroke-linejoin="round"/>
<path d="M273.379 58.6235L327.001 58.7639" stroke="white" stroke-width="10" stroke-linecap="round" stroke-linejoin="round"/>
<path d="M57.2822 433.44L111.44 433.44" stroke="white" stroke-width="10" stroke-linecap="round" stroke-linejoin="round"/>
<path d="M111.44 379.818V487.062" stroke="white" stroke-width="10" stroke-linecap="round" stroke-linejoin="round"/>
<path d="M110.368 487.062L57.2824 433.44" stroke="white" stroke-width="10" stroke-linecap="round" stroke-linejoin="round"/>
<path d="M163.453 217.612L111.44 164.794" stroke="white" stroke-width="10" stroke-linecap="round" stroke-linejoin="round"/>
<path d="M111.44 273.915L111.44 326.196" stroke="white" stroke-width="10" stroke-linecap="round" stroke-linejoin="round"/>
<path d="M165.061 217.879L165.061 272.037" stroke="white" stroke-width="10" stroke-linecap="round" stroke-linejoin="round"/>
<path d="M272.306 58.8896L272.306 113.048" stroke="white" stroke-width="10" stroke-linecap="round" stroke-linejoin="round"/>
<path d="M165.061 5.00098V57.0143" stroke="white" stroke-width="10" stroke-linecap="round" stroke-linejoin="round"/>
<path d="M111.44 58.624L111.44 112.246" stroke="white" stroke-width="10" stroke-linecap="round" stroke-linejoin="round"/>
<path d="M218.684 272.039L218.684 326.197" stroke="white" stroke-width="10" stroke-linecap="round" stroke-linejoin="round"/>
<path d="M272.306 112.781L272.306 166.939" stroke="white" stroke-width="10" stroke-linecap="round" stroke-linejoin="round"/>
<path d="M218.685 218.952L218.685 273.11" stroke="white" stroke-width="10" stroke-linecap="round" stroke-linejoin="round"/>
<path d="M165.061 380.354L165.061 487.061" stroke="white" stroke-width="10" stroke-linecap="round" stroke-linejoin="round"/>
<path d="M218.945 272.841L165.866 220.016" stroke="white" stroke-width="10" stroke-linecap="round" stroke-linejoin="round"/>
<path d="M165.599 379.282L111.44 326.197" stroke="white" stroke-width="10" stroke-linecap="round" stroke-linejoin="round"/>
<path d="M165.062 487.062L111.44 433.976" stroke="white" stroke-width="10" stroke-linecap="round" stroke-linejoin="round"/>
<path d="M57.8176 58.0854L5 4.99974" stroke="white" stroke-width="10" stroke-linecap="round" stroke-linejoin="round"/>
<path d="M110.368 58.0854L58.0869 4.99974" stroke="white" stroke-width="10" stroke-linecap="round" stroke-linejoin="round"/>
<path d="M327 58.6235L274.183 5.53782" stroke="white" stroke-width="10" stroke-linecap="round" stroke-linejoin="round"/>
<path d="M218.683 218.148L165.062 164.258" stroke="white" stroke-width="10" stroke-linecap="round" stroke-linejoin="round"/>
<path d="M217.343 326.465L163.453 273.379" stroke="white" stroke-width="10" stroke-linecap="round" stroke-linejoin="round"/>
<path d="M218.684 378.745L271.502 325.659" stroke="white" stroke-width="10" stroke-linecap="round" stroke-linejoin="round"/>
<path d="M218.683 327.268L271.501 274.182" stroke="white" stroke-width="10" stroke-linecap="round" stroke-linejoin="round"/>
<path d="M273.647 486.794L325.124 433.44" stroke="white" stroke-width="10" stroke-linecap="round" stroke-linejoin="round"/>
<path d="M111.441 273.379L218.685 164.258" stroke="white" stroke-width="10" stroke-linecap="round" stroke-linejoin="round"/>
<path d="M111.439 112.244L165.061 57.5498" stroke="white" stroke-width="10" stroke-linecap="round" stroke-linejoin="round"/>
<path d="M272.306 58.0854L325.124 4.99974" stroke="white" stroke-width="10" stroke-linecap="round" stroke-linejoin="round"/>
<path d="M57.8185 58.0859L111.44 5.00022" stroke="white" stroke-width="10" stroke-linecap="round" stroke-linejoin="round"/>
<path d="M218.684 218.952L272.306 166.939" stroke="white" stroke-width="10" stroke-linecap="round" stroke-linejoin="round"/>
<path d="M217.879 164.794L271.501 112.244" stroke="white" stroke-width="10" stroke-linecap="round" stroke-linejoin="round"/>
<path d="M110.903 58.6235L165.062 5.0016" stroke="white" stroke-width="10" stroke-linecap="round" stroke-linejoin="round"/>
<path d="M165.062 57.0137L112.78 5.00039" stroke="white" stroke-width="10" stroke-linecap="round" stroke-linejoin="round"/>
<path d="M326.463 111.708L273.109 58.8904" stroke="white" stroke-width="10" stroke-linecap="round" stroke-linejoin="round"/>
<path d="M271.501 325.659L218.684 272.573" stroke="white" stroke-width="10" stroke-linecap="round" stroke-linejoin="round"/>
<path d="M325.209 433.701L217.343 326.846" stroke="white" stroke-width="10" stroke-linecap="round" stroke-linejoin="round"/>
<path d="M325.123 487.062L272.306 433.976" stroke="white" stroke-width="10" stroke-linecap="round" stroke-linejoin="round"/>
<path d="M111.44 379.013L165.598 325.659" stroke="white" stroke-width="10" stroke-linecap="round" stroke-linejoin="round"/>
</svg>
