<svg width="4223" height="4115" viewBox="0 0 4223 4115" fill="none" xmlns="http://www.w3.org/2000/svg">
<g opacity="0.8">
<path d="M1945.25 2539.83L2087.57 2555.21" stroke="#0047FF" stroke-width="20" stroke-linecap="round" stroke-linejoin="round"/>
<path d="M2024.58 3125.07L1882.25 3109.69M1882.25 3109.69L1866.88 3252.02L2009.2 3267.39L1882.25 3109.69Z" stroke="#FF0000" stroke-width="20" stroke-linecap="round" stroke-linejoin="round"/>
<path d="M1975.92 2255.9L1960.58 2397.87L2087.49 2555.92M2087.49 2555.92L2102.91 2413.24M2087.49 2555.92L2245.59 2428.65M2087.49 2555.92L1929.84 2682.52L2056.79 2840.21L2041.41 2982.54" stroke="#FF0000" stroke-width="20" stroke-linecap="round" stroke-linejoin="round"/>
<path d="M1913 2825.04L1897.63 2967.37" stroke="#FF0000" stroke-width="20" stroke-linecap="round" stroke-linejoin="round"/>
<path d="M1990.74 2115.31L2006.12 1972.99L2133.42 2130.73L2118.24 2271.27" stroke="#FF0000" stroke-width="20" stroke-linecap="round" stroke-linejoin="round"/>
<path d="M2386.1 2444.19L2370.72 2586.51L2528.42 2459.56" stroke="#FF0000" stroke-width="20" stroke-linecap="round" stroke-linejoin="round"/>
<path d="M2513.05 2601.89L2670.74 2474.93" stroke="#FF0000" stroke-width="20" stroke-linecap="round" stroke-linejoin="round"/>
<path d="M2655.37 2617.26L2797.7 2632.63L2640 2759.58L2624.62 2901.91L2766.95 2917.28L2782.32 2774.96" stroke="#FF0000" stroke-width="20" stroke-linecap="round" stroke-linejoin="round"/>
<path d="M2609.25 3044.23L2593.88 3186.56" stroke="#FF0000" stroke-width="20" stroke-linecap="round" stroke-linejoin="round"/>
<path d="M2751.58 3059.61L2736.2 3201.93M2736.2 3201.93L2578.5 3328.88M2736.2 3201.93L2720.83 3344.26" stroke="#FF0000" stroke-width="20" stroke-linecap="round" stroke-linejoin="round"/>
<path d="M2146.66 1988.17L1990.74 2115.31" stroke="#0047FF" stroke-width="20" stroke-linecap="round" stroke-linejoin="round"/>
<path d="M2133.42 2130.73L1975.96 2255.54" stroke="#0047FF" stroke-width="20" stroke-linecap="round" stroke-linejoin="round"/>
<path d="M2072.08 2698.6L1913 2825.04" stroke="#0047FF" stroke-width="20" stroke-linecap="round" stroke-linejoin="round"/>
<path d="M2041.3 2983.61L1882.21 3110.05" stroke="#0047FF" stroke-width="20" stroke-linecap="round" stroke-linejoin="round"/>
<path d="M2102.95 2412.88L2227.44 2569.96" stroke="#0047FF" stroke-width="20" stroke-linecap="round" stroke-linejoin="round"/>
<path d="M2386.17 2443.48L2513.05 2601.89" stroke="#0047FF" stroke-width="20" stroke-linecap="round" stroke-linejoin="round"/>
<path d="M2670.74 2474.94L2797.7 2632.63" stroke="#0047FF" stroke-width="20" stroke-linecap="round" stroke-linejoin="round"/>
<path d="M2655.37 2617.26L2782.32 2774.96" stroke="#0047FF" stroke-width="20" stroke-linecap="round" stroke-linejoin="round"/>
<path d="M2593.72 3187.98L2720.67 3345.68" stroke="#0047FF" stroke-width="20" stroke-linecap="round" stroke-linejoin="round"/>
<path d="M1975.13 2256.53L2118.17 2271.98" stroke="#0047FF" stroke-width="20" stroke-linecap="round" stroke-linejoin="round"/>
<path d="M1960.62 2397.51L2102.95 2412.88" stroke="#0047FF" stroke-width="20" stroke-linecap="round" stroke-linejoin="round"/>
<path d="M1897.63 2967.37L2041.37 2982.89" stroke="#0047FF" stroke-width="20" stroke-linecap="round" stroke-linejoin="round"/>
<path d="M1912.85 2826.47L2056.59 2841.99" stroke="#0047FF" stroke-width="20" stroke-linecap="round" stroke-linejoin="round"/>
<path d="M2228.4 2571.14L2370.72 2586.51" stroke="#0047FF" stroke-width="20" stroke-linecap="round" stroke-linejoin="round"/>
<path d="M2245.98 2428.33L2386.17 2443.48" stroke="#0047FF" stroke-width="20" stroke-linecap="round" stroke-linejoin="round"/>
<path d="M2528.42 2459.56L2670.74 2474.93" stroke="#0047FF" stroke-width="20" stroke-linecap="round" stroke-linejoin="round"/>
<path d="M1897.63 2967.37L1882.48 3107.56" stroke="#0047FF" stroke-width="20" stroke-linecap="round" stroke-linejoin="round"/>
<path d="M2670.51 2477.07L2655.37 2617.26" stroke="#0047FF" stroke-width="20" stroke-linecap="round" stroke-linejoin="round"/>
<path d="M2245.6 2431.89L2230.45 2572.08" stroke="#0047FF" stroke-width="20" stroke-linecap="round" stroke-linejoin="round"/>
<path d="M2766.83 2918.35L2609.21 3044.59" stroke="#0047FF" stroke-width="20" stroke-linecap="round" stroke-linejoin="round"/>
<path d="M2751.57 3059.61L2593.95 3185.85" stroke="#0047FF" stroke-width="20" stroke-linecap="round" stroke-linejoin="round"/>
<path d="M2624.55 2902.62L2609.48 3042.1" stroke="#0047FF" stroke-width="20" stroke-linecap="round" stroke-linejoin="round"/>
<path d="M2593.88 3186.56L2736.2 3201.93" stroke="#0047FF" stroke-width="20" stroke-linecap="round" stroke-linejoin="round"/>
<path d="M1430.07 2455.38L1601.46 2477.47" stroke="#FF0000" stroke-width="20" stroke-linecap="round" stroke-linejoin="round"/>
<path d="M1449.07 2287.9L1620.46 2309.99" stroke="#FF0000" stroke-width="20" stroke-linecap="round" stroke-linejoin="round"/>
<path d="M1813.62 2163.23L1835.49 1993.53L1981.62 2184.89L1813.62 2163.23Z" stroke="#FF0000" stroke-width="20" stroke-linecap="round" stroke-linejoin="round"/>
<path d="M1685.97 1801.74L1664.1 1971.44L1516.27 1779.87L1685.97 1801.74Z" stroke="#FF0000" stroke-width="20" stroke-linecap="round" stroke-linejoin="round"/>
<path d="M1220.62 1396.72L1050.92 1374.85L1242.49 1227.02L1220.62 1396.72Z" stroke="#FF0000" stroke-width="20" stroke-linecap="round" stroke-linejoin="round"/>
<path d="M1412.19 1248.9L1242.49 1227.03L1434.06 1079.2L1412.19 1248.9Z" stroke="#FF0000" stroke-width="20" stroke-linecap="round" stroke-linejoin="round"/>
<path d="M1428.37 2455.16L1259.52 2433.4L1449.06 2287.9L1428.37 2455.16Z" stroke="#FF0000" stroke-width="20" stroke-linecap="round" stroke-linejoin="round"/>
<path d="M1957.47 2355.58L1769.99 2501.78" stroke="#0047FF" stroke-width="20" stroke-linecap="round" stroke-linejoin="round"/>
<path d="M1788.46 2331.64L1959.86 2353.74" stroke="#0047FF" stroke-width="20" stroke-linecap="round" stroke-linejoin="round"/>
<path d="M1791.75 2332.93L1770.2 2500.08" stroke="#0047FF" stroke-width="20" stroke-linecap="round" stroke-linejoin="round"/>
<path d="M1791.75 2332.93L1598.53 2480.11" stroke="#0047FF" stroke-width="20" stroke-linecap="round" stroke-linejoin="round"/>
<path d="M1620.46 2309.99L1791.86 2332.08" stroke="#0047FF" stroke-width="20" stroke-linecap="round" stroke-linejoin="round"/>
<path d="M1620.46 2309.99L1598.92 2477.15" stroke="#0047FF" stroke-width="20" stroke-linecap="round" stroke-linejoin="round"/>
<path d="M1109.65 2247.6L962.469 2054.39" stroke="#0047FF" stroke-width="20" stroke-linecap="round" stroke-linejoin="round"/>
<path d="M1132.59 2076.32L1110.5 2247.71" stroke="#0047FF" stroke-width="20" stroke-linecap="round" stroke-linejoin="round"/>
<path d="M1132.59 2076.32L965.439 2054.77" stroke="#0047FF" stroke-width="20" stroke-linecap="round" stroke-linejoin="round"/>
<path d="M1109.65 2247.6L962.469 2054.39" stroke="#0047FF" stroke-width="20" stroke-linecap="round" stroke-linejoin="round"/>
<path d="M1132.59 2076.32L1110.5 2247.71" stroke="#0047FF" stroke-width="20" stroke-linecap="round" stroke-linejoin="round"/>
<path d="M1922.44 1318.98L1901.11 1484.43" stroke="#FF0000" stroke-width="20" stroke-linecap="round" stroke-linejoin="round"/>
<path d="M1981.62 2184.89L1959.75 2354.59" stroke="#FF0000" stroke-width="20" stroke-linecap="round" stroke-linejoin="round"/>
<path d="M1405.76 2623.91L1577.15 2646" stroke="#FF0000" stroke-width="20" stroke-linecap="round" stroke-linejoin="round"/>
<path d="M1901 1485.28L2065.61 1506.5" stroke="#FF0000" stroke-width="20" stroke-linecap="round" stroke-linejoin="round"/>
<path d="M1132.59 2076.32L965.439 2054.77" stroke="#0047FF" stroke-width="20" stroke-linecap="round" stroke-linejoin="round"/>
<path d="M1493.75 1951.21L1346.57 1758" stroke="#0047FF" stroke-width="20" stroke-linecap="round" stroke-linejoin="round"/>
<path d="M1517.12 1779.98L1495.03 1951.37" stroke="#0047FF" stroke-width="20" stroke-linecap="round" stroke-linejoin="round"/>
<path d="M1516.7 1779.92L1349.54 1758.38" stroke="#0047FF" stroke-width="20" stroke-linecap="round" stroke-linejoin="round"/>
<path d="M1774.2 1123.9L1921.38 1317.12" stroke="#0047FF" stroke-width="20" stroke-linecap="round" stroke-linejoin="round"/>
<path d="M1752.02 1289.25L1773.35 1123.79" stroke="#0047FF" stroke-width="20" stroke-linecap="round" stroke-linejoin="round"/>
<path d="M1751.7 1291.79L1916.31 1313.01" stroke="#0047FF" stroke-width="20" stroke-linecap="round" stroke-linejoin="round"/>
<path d="M1603.65 1101.92L1412.19 1248.9" stroke="#0047FF" stroke-width="20" stroke-linecap="round" stroke-linejoin="round"/>
<path d="M2067.09 1508.41L1878.5 1653.18" stroke="#0047FF" stroke-width="20" stroke-linecap="round" stroke-linejoin="round"/>
<path d="M2068.16 1506.83L1921.38 1317.12" stroke="#0047FF" stroke-width="20" stroke-linecap="round" stroke-linejoin="round"/>
<path d="M1835.6 1992.68L1687.67 1801.96" stroke="#0047FF" stroke-width="20" stroke-linecap="round" stroke-linejoin="round"/>
<path d="M1582 1269.92L1434.06 1079.2" stroke="#FF0000" stroke-width="20" stroke-linecap="round" stroke-linejoin="round"/>
<path d="M1260.2 2434.78L1110.41 2245.11" stroke="#FF0000" stroke-width="20" stroke-linecap="round" stroke-linejoin="round"/>
<path d="M1407.45 2624.12L1259.52 2433.4" stroke="#FF0000" stroke-width="20" stroke-linecap="round" stroke-linejoin="round"/>
<path d="M2047.35 1674.94L1901 1485.28" stroke="#FF0000" stroke-width="20" stroke-linecap="round" stroke-linejoin="round"/>
<path d="M1280.21 2266.14L1090.67 2411.64" stroke="#FF0000" stroke-width="20" stroke-linecap="round" stroke-linejoin="round"/>
<path d="M2047.13 1676.64L1856.52 1823.72" stroke="#FF0000" stroke-width="20" stroke-linecap="round" stroke-linejoin="round"/>
<path d="M1856.52 1823.72L1665.79 1971.66" stroke="#FF0000" stroke-width="20" stroke-linecap="round" stroke-linejoin="round"/>
<path d="M1577.04 2646.85L1429.11 2456.12" stroke="#0047FF" stroke-width="20" stroke-linecap="round" stroke-linejoin="round"/>
<path d="M1603.65 1101.92L1773.35 1123.79" stroke="#0047FF" stroke-width="20" stroke-linecap="round" stroke-linejoin="round"/>
<path d="M1582 1269.92L1751.7 1291.79" stroke="#0047FF" stroke-width="20" stroke-linecap="round" stroke-linejoin="round"/>
<path d="M1857.37 1823.83L2024.52 1845.38" stroke="#0047FF" stroke-width="20" stroke-linecap="round" stroke-linejoin="round"/>
<path d="M1093.21 2411.96L1261.22 2433.62" stroke="#0047FF" stroke-width="20" stroke-linecap="round" stroke-linejoin="round"/>
<path d="M1241.15 2602.69L1406.61 2624.01" stroke="#0047FF" stroke-width="20" stroke-linecap="round" stroke-linejoin="round"/>
<path d="M1110.84 2241.72L1088.97 2411.42" stroke="#0047FF" stroke-width="20" stroke-linecap="round" stroke-linejoin="round"/>
<path d="M1813.62 2163.23L1791.75 2332.93" stroke="#0047FF" stroke-width="20" stroke-linecap="round" stroke-linejoin="round"/>
<path d="M1857.37 1823.83L1835.6 1992.68" stroke="#0047FF" stroke-width="20" stroke-linecap="round" stroke-linejoin="round"/>
<path d="M2047.35 1674.94L2025.37 1845.49" stroke="#0047FF" stroke-width="20" stroke-linecap="round" stroke-linejoin="round"/>
<path d="M1428.26 2456.01L1406.61 2624.01" stroke="#0047FF" stroke-width="20" stroke-linecap="round" stroke-linejoin="round"/>
<path d="M2561.56 1929.83L2397.85 1911.25" stroke="#FF0000" stroke-width="20" stroke-linecap="round" stroke-linejoin="round"/>
<path d="M2950.18 1472.26L2782.31 1453.21" stroke="#FF0000" stroke-width="20" stroke-linecap="round" stroke-linejoin="round"/>
<path d="M2969.04 1306.06L2801.17 1287.01" stroke="#FF0000" stroke-width="20" stroke-linecap="round" stroke-linejoin="round"/>
<path d="M2993.91 1138.85L2826.04 1119.8" stroke="#FF0000" stroke-width="20" stroke-linecap="round" stroke-linejoin="round"/>
<path d="M2488.64 1081.51L2328.25 1063.31" stroke="#FF0000" stroke-width="20" stroke-linecap="round" stroke-linejoin="round"/>
<path d="M2376.31 2078.84L2208.44 2059.79" stroke="#0047FF" stroke-width="20" stroke-linecap="round" stroke-linejoin="round"/>
<path d="M2890.27 1970.5L2725.73 1951.83" stroke="#0047FF" stroke-width="20" stroke-linecap="round" stroke-linejoin="round"/>
<path d="M2875.11 2133.76L2708.81 2115.74" stroke="#0047FF" stroke-width="20" stroke-linecap="round" stroke-linejoin="round"/>
<path d="M2837.39 2466.17L2671.19 2447.31" stroke="#0047FF" stroke-width="20" stroke-linecap="round" stroke-linejoin="round"/>
<path d="M2767.13 1616.43L2599.26 1597.38" stroke="#0047FF" stroke-width="20" stroke-linecap="round" stroke-linejoin="round"/>
<path d="M3010.27 972.359L2842.41 953.31" stroke="#0047FF" stroke-width="20" stroke-linecap="round" stroke-linejoin="round"/>
<path d="M2912.65 1803.01L2744.78 1783.96" stroke="#0047FF" stroke-width="20" stroke-linecap="round" stroke-linejoin="round"/>
<path d="M3022.08 2322.15L3003.6 2485.03" stroke="#FF0000" stroke-width="20" stroke-linecap="round" stroke-linejoin="round"/>
<path d="M2727.39 1952.02L2708.81 2115.73" stroke="#FF0000" stroke-width="20" stroke-linecap="round" stroke-linejoin="round"/>
<path d="M2912.65 1803.01L2893.97 1967.55" stroke="#FF0000" stroke-width="20" stroke-linecap="round" stroke-linejoin="round"/>
<path d="M2489.47 1081.61L2470.8 1246.15" stroke="#FF0000" stroke-width="20" stroke-linecap="round" stroke-linejoin="round"/>
<path d="M2931.58 1635.93L2769.58 1617.11" stroke="#FF0000" stroke-width="20" stroke-linecap="round" stroke-linejoin="round"/>
<path d="M2354.31 2243L2188.16 2223.71" stroke="#FF0000" stroke-width="20" stroke-linecap="round" stroke-linejoin="round"/>
<path d="M3155.96 1157.24L2988.09 1138.19" stroke="#0047FF" stroke-width="20" stroke-linecap="round" stroke-linejoin="round"/>
<path d="M2969.2 1304.35L3006.93 971.943" stroke="#0047FF" stroke-width="20" stroke-linecap="round" stroke-linejoin="round"/>
<path d="M3010.27 972.36L3155.96 1157.24" stroke="#0047FF" stroke-width="20" stroke-linecap="round" stroke-linejoin="round"/>
<path d="M2750.96 1788.87L2893.6 1970.88" stroke="#0047FF" stroke-width="20" stroke-linecap="round" stroke-linejoin="round"/>
<path d="M2931.98 1632.65L2950.37 1470.6" stroke="#0047FF" stroke-width="20" stroke-linecap="round" stroke-linejoin="round"/>
<path d="M2746.04 1787.43L2765.09 1619.57" stroke="#0047FF" stroke-width="20" stroke-linecap="round" stroke-linejoin="round"/>
<path d="M2357.73 2242.55L2376.78 2074.68" stroke="#FF0000" stroke-width="20" stroke-linecap="round" stroke-linejoin="round"/>
<path d="M2671.19 2447.31L2689.48 2286.09" stroke="#FF0000" stroke-width="20" stroke-linecap="round" stroke-linejoin="round"/>
<path d="M2856.25 2299.96L2875.11 2133.76" stroke="#0047FF" stroke-width="20" stroke-linecap="round" stroke-linejoin="round"/>
<path d="M2598.88 1600.71L2617.93 1432.84" stroke="#0047FF" stroke-width="20" stroke-linecap="round" stroke-linejoin="round"/>
<path d="M2376.69 2075.52L2395.74 1907.65" stroke="#0047FF" stroke-width="20" stroke-linecap="round" stroke-linejoin="round"/>
<path d="M2580.21 1765.25L2599.26 1597.38" stroke="#0047FF" stroke-width="20" stroke-linecap="round" stroke-linejoin="round"/>
<path d="M2803.19 1283.83L2840.72 953.082" stroke="#0047FF" stroke-width="20" stroke-linecap="round" stroke-linejoin="round"/>
<path d="M2598.36 1598.12L2744.3 1780.53" stroke="#FF0000" stroke-width="20" stroke-linecap="round" stroke-linejoin="round"/>
<path d="M2801.17 1287.01L2950.37 1470.6" stroke="#FF0000" stroke-width="20" stroke-linecap="round" stroke-linejoin="round"/>
<path d="M2840.74 953.122L2988.28 1136.53" stroke="#FF0000" stroke-width="20" stroke-linecap="round" stroke-linejoin="round"/>
<path d="M3022.27 2320.49L3167.31 2503.61" stroke="#FF0000" stroke-width="20" stroke-linecap="round" stroke-linejoin="round"/>
<path d="M2859.39 2302L3002.77 2484.93" stroke="#FF0000" stroke-width="20" stroke-linecap="round" stroke-linejoin="round"/>
<path d="M2188.11 2224.15L2333.15 2407.27" stroke="#FF0000" stroke-width="20" stroke-linecap="round" stroke-linejoin="round"/>
<path d="M2579.95 1767.78L2727.2 1953.68" stroke="#FF0000" stroke-width="20" stroke-linecap="round" stroke-linejoin="round"/>
<path d="M2622.18 1432.48L2770.55 1615.98" stroke="#FF0000" stroke-width="20" stroke-linecap="round" stroke-linejoin="round"/>
<path d="M2636.42 1269.96L2454.03 1415.92" stroke="#FF0000" stroke-width="20" stroke-linecap="round" stroke-linejoin="round"/>
<path d="M2618.33 1429.55L2435.95 1575.52" stroke="#FF0000" stroke-width="20" stroke-linecap="round" stroke-linejoin="round"/>
<path d="M2504.08 915.76L2325.76 1063.03" stroke="#FF0000" stroke-width="20" stroke-linecap="round" stroke-linejoin="round"/>
<path d="M2931.77 1634.27L2560.97 1934.78" stroke="#FF0000" stroke-width="20" stroke-linecap="round" stroke-linejoin="round"/>
<path d="M2875.11 2133.76L2689.67 2284.43" stroke="#FF0000" stroke-width="20" stroke-linecap="round" stroke-linejoin="round"/>
<path d="M2357.45 2245.04L2175.06 2391.01" stroke="#0047FF" stroke-width="20" stroke-linecap="round" stroke-linejoin="round"/>
<path d="M3022.27 2320.49L2837.39 2466.17" stroke="#0047FF" stroke-width="20" stroke-linecap="round" stroke-linejoin="round"/>
<path d="M2580.21 1765.25L2395.71 1907.61" stroke="#0047FF" stroke-width="20" stroke-linecap="round" stroke-linejoin="round"/>
<path d="M2563.68 1933.44L2378.99 2077.46" stroke="#0047FF" stroke-width="20" stroke-linecap="round" stroke-linejoin="round"/>
<path d="M2857.92 2300.15L2671.19 2447.31" stroke="#0047FF" stroke-width="20" stroke-linecap="round" stroke-linejoin="round"/>
<path d="M2689.48 2286.09L2833.24 2465.7" stroke="#0047FF" stroke-width="20" stroke-linecap="round" stroke-linejoin="round"/>
<path d="M2208.44 2059.79L2355.24 2242.27" stroke="#0047FF" stroke-width="20" stroke-linecap="round" stroke-linejoin="round"/>
<path d="M2454.06 1415.96L2599.1 1599.08" stroke="#0047FF" stroke-width="20" stroke-linecap="round" stroke-linejoin="round"/>
<path d="M2325.59 1062.19L2622.34 1431.33" stroke="#0047FF" stroke-width="20" stroke-linecap="round" stroke-linejoin="round"/>
<path d="M2344.62 896.824L2489.66 1079.94" stroke="#0047FF" stroke-width="20" stroke-linecap="round" stroke-linejoin="round"/>
<path d="M2968.95 1306.89L2782.31 1453.21" stroke="#0047FF" stroke-width="20" stroke-linecap="round" stroke-linejoin="round"/>
<path d="M1289.24 2658.29L1111.57 2740.72" stroke="#FF0000" stroke-width="20" stroke-linecap="round" stroke-linejoin="round"/>
<path d="M2284.33 3172.04L2235.78 3303.59" stroke="#0047FF" stroke-width="20" stroke-linecap="round" stroke-linejoin="round"/>
<path d="M1372.07 2836.86L1324.73 2965.16" stroke="#0047FF" stroke-width="20" stroke-linecap="round" stroke-linejoin="round"/>
<path d="M1774.35 2542.82L1642.8 2494.27" stroke="#0047FF" stroke-width="20" stroke-linecap="round" stroke-linejoin="round"/>
<path d="M2247.98 2871.51L2202.31 2995.26" stroke="#FF0000" stroke-width="20" stroke-linecap="round" stroke-linejoin="round"/>
<path d="M2165.59 2685.72L2037.29 2638.37" stroke="#FF0000" stroke-width="20" stroke-linecap="round" stroke-linejoin="round"/>
<path d="M2056.32 3386.84L1924.77 3338.29" stroke="#FF0000" stroke-width="20" stroke-linecap="round" stroke-linejoin="round"/>
<path d="M2164.63 2688.32L2118.73 2812.72" stroke="#FF0000" stroke-width="20" stroke-linecap="round" stroke-linejoin="round"/>
<path d="M1775.83 2544.84L1728.72 2672.49" stroke="#FF0000" stroke-width="20" stroke-linecap="round" stroke-linejoin="round"/>
<path d="M1513.36 2447.98L1466.26 2575.63" stroke="#FF0000" stroke-width="20" stroke-linecap="round" stroke-linejoin="round"/>
<path d="M1337.48 2529.58L1289.89 2658.53" stroke="#FF0000" stroke-width="20" stroke-linecap="round" stroke-linejoin="round"/>
<path d="M1193.75 2919.04L1145.2 3050.6" stroke="#FF0000" stroke-width="20" stroke-linecap="round" stroke-linejoin="round"/>
<path d="M1405.71 3146.74L1357.16 3278.29" stroke="#FF0000" stroke-width="20" stroke-linecap="round" stroke-linejoin="round"/>
<path d="M1324.66 2967.35L1193.1 2918.8" stroke="#FF0000" stroke-width="20" stroke-linecap="round" stroke-linejoin="round"/>
<path d="M1405.06 3146.5L1273.5 3097.95" stroke="#FF0000" stroke-width="20" stroke-linecap="round" stroke-linejoin="round"/>
<path d="M1989.22 2768.62L1857.67 2720.07" stroke="#FF0000" stroke-width="20" stroke-linecap="round" stroke-linejoin="round"/>
<path d="M1726.76 2671.77L1858.97 2720.56" stroke="#0047FF" stroke-width="20" stroke-linecap="round" stroke-linejoin="round"/>
<path d="M1337.48 2529.58L1465.78 2576.93" stroke="#0047FF" stroke-width="20" stroke-linecap="round" stroke-linejoin="round"/>
<path d="M1144.55 3050.36L1269.59 3096.5" stroke="#0047FF" stroke-width="20" stroke-linecap="round" stroke-linejoin="round"/>
<path d="M1877.18 3467.24L1797.94 3292.96" stroke="#0047FF" stroke-width="20" stroke-linecap="round" stroke-linejoin="round"/>
<path d="M2185.76 3433.12L2106.04 3260.15" stroke="#0047FF" stroke-width="20" stroke-linecap="round" stroke-linejoin="round"/>
<path d="M2329.65 3045.21L2248.94 2868.91" stroke="#0047FF" stroke-width="20" stroke-linecap="round" stroke-linejoin="round"/>
<path d="M2248.94 2868.91L2165.59 2685.72" stroke="#0047FF" stroke-width="20" stroke-linecap="round" stroke-linejoin="round"/>
<path d="M1726.76 2671.77L1641.66 2495.33" stroke="#0047FF" stroke-width="20" stroke-linecap="round" stroke-linejoin="round"/>
<path d="M1372.55 2835.55L1289.24 2658.29" stroke="#0047FF" stroke-width="20" stroke-linecap="round" stroke-linejoin="round"/>
<path d="M1190.5 2917.84L1109.78 2741.54" stroke="#0047FF" stroke-width="20" stroke-linecap="round" stroke-linejoin="round"/>
<path d="M1272.37 3099.01L1191.66 2922.71" stroke="#0047FF" stroke-width="20" stroke-linecap="round" stroke-linejoin="round"/>
<path d="M1357.16 3278.29L1271.97 3098.11" stroke="#0047FF" stroke-width="20" stroke-linecap="round" stroke-linejoin="round"/>
<path d="M1289.24 2658.29L1465.54 2577.58" stroke="#0047FF" stroke-width="20" stroke-linecap="round" stroke-linejoin="round"/>
<path d="M1337.96 2528.28L1513.84 2446.68" stroke="#0047FF" stroke-width="20" stroke-linecap="round" stroke-linejoin="round"/>
<path d="M1989.22 2768.62L1906.08 2592.91" stroke="#FF0000" stroke-width="20" stroke-linecap="round" stroke-linejoin="round"/>
<path d="M2201.83 2996.56L2118.25 2814.02" stroke="#FF0000" stroke-width="20" stroke-linecap="round" stroke-linejoin="round"/>
<path d="M2285.94 3169.66L2201.84 2996.58" stroke="#FF0000" stroke-width="20" stroke-linecap="round" stroke-linejoin="round"/>
<path d="M1924.77 3338.29L1750.18 3420.37" stroke="#FF0000" stroke-width="20" stroke-linecap="round" stroke-linejoin="round"/>
<path d="M2235.78 3303.59L2056.39 3388.33" stroke="#FF0000" stroke-width="20" stroke-linecap="round" stroke-linejoin="round"/>
<path d="M2329.65 3045.21L2154.9 3125.75" stroke="#FF0000" stroke-width="20" stroke-linecap="round" stroke-linejoin="round"/>
<path d="M1776.31 2543.54L1597.98 2625.72" stroke="#FF0000" stroke-width="20" stroke-linecap="round" stroke-linejoin="round"/>
<path d="M1417.71 2707.18L1243.77 2789.51" stroke="#FF0000" stroke-width="20" stroke-linecap="round" stroke-linejoin="round"/>
<path d="M1878 3469.02L2056.5 3388.38" stroke="#0047FF" stroke-width="20" stroke-linecap="round" stroke-linejoin="round"/>
<path d="M1906.08 2592.91L1858.97 2720.56" stroke="#0047FF" stroke-width="20" stroke-linecap="round" stroke-linejoin="round"/>
<path d="M2037.29 2638.37L1989.22 2768.63" stroke="#0047FF" stroke-width="20" stroke-linecap="round" stroke-linejoin="round"/>
<path d="M2155.55 3125.99L2283.85 3173.34" stroke="#0047FF" stroke-width="20" stroke-linecap="round" stroke-linejoin="round"/>
<path d="M1925.35 3340.72L1878 3469.02" stroke="#0047FF" stroke-width="20" stroke-linecap="round" stroke-linejoin="round"/>
<path d="M1642.8 2494.27L1513.85 2446.68" stroke="#0047FF" stroke-width="20" stroke-linecap="round" stroke-linejoin="round"/>
<path d="M1243.77 2789.51L1194.26 2923.67" stroke="#0047FF" stroke-width="20" stroke-linecap="round" stroke-linejoin="round"/>
<path d="M412.56 2068.37L395.943 2263.53" stroke="#FF0000" stroke-width="20" stroke-linecap="round" stroke-linejoin="round"/>
<path d="M1352.42 1459.44L1442.53 1566.87" stroke="#0047FF" stroke-width="20" stroke-linecap="round" stroke-linejoin="round"/>
<path d="M608.691 2085.08L696.577 2189.85" stroke="#0047FF" stroke-width="20" stroke-linecap="round" stroke-linejoin="round"/>
<path d="M553.06 1589.91L445.622 1680.02" stroke="#0047FF" stroke-width="20" stroke-linecap="round" stroke-linejoin="round"/>
<path d="M1073.48 1341.85L1158.24 1442.91" stroke="#FF0000" stroke-width="20" stroke-linecap="round" stroke-linejoin="round"/>
<path d="M871.29 1321.17L766.511 1409.05" stroke="#FF0000" stroke-width="20" stroke-linecap="round" stroke-linejoin="round"/>
<path d="M1425.74 1763.98L1318.31 1854.1" stroke="#FF0000" stroke-width="20" stroke-linecap="round" stroke-linejoin="round"/>
<path d="M873.074 1323.29L958.284 1424.88" stroke="#FF0000" stroke-width="20" stroke-linecap="round" stroke-linejoin="round"/>
<path d="M555.547 1589.63L642.988 1693.88" stroke="#FF0000" stroke-width="20" stroke-linecap="round" stroke-linejoin="round"/>
<path d="M341.204 1769.42L428.645 1873.67" stroke="#FF0000" stroke-width="20" stroke-linecap="round" stroke-linejoin="round"/>
<path d="M324.759 1962.62L413.091 2067.93" stroke="#FF0000" stroke-width="20" stroke-linecap="round" stroke-linejoin="round"/>
<path d="M591.542 2280.68L681.66 2388.11" stroke="#FF0000" stroke-width="20" stroke-linecap="round" stroke-linejoin="round"/>
<path d="M894.407 2209.66L984.525 2317.1" stroke="#FF0000" stroke-width="20" stroke-linecap="round" stroke-linejoin="round"/>
<path d="M698.448 2191L591.01 2281.12" stroke="#FF0000" stroke-width="20" stroke-linecap="round" stroke-linejoin="round"/>
<path d="M893.875 2210.11L786.438 2300.23" stroke="#FF0000" stroke-width="20" stroke-linecap="round" stroke-linejoin="round"/>
<path d="M855.736 1515.43L748.299 1605.55" stroke="#FF0000" stroke-width="20" stroke-linecap="round" stroke-linejoin="round"/>
<path d="M641.393 1695.22L749.362 1604.65" stroke="#0047FF" stroke-width="20" stroke-linecap="round" stroke-linejoin="round"/>
<path d="M324.759 1962.62L429.537 1874.73" stroke="#0047FF" stroke-width="20" stroke-linecap="round" stroke-linejoin="round"/>
<path d="M681.128 2388.56L783.247 2302.9" stroke="#0047FF" stroke-width="20" stroke-linecap="round" stroke-linejoin="round"/>
<path d="M1406.64 1959.41L1216.02 1941.71" stroke="#0047FF" stroke-width="20" stroke-linecap="round" stroke-linejoin="round"/>
<path d="M1530.16 1674.59L1340.43 1657.95" stroke="#0047FF" stroke-width="20" stroke-linecap="round" stroke-linejoin="round"/>
<path d="M1264.8 1357.15L1071.69 1339.72" stroke="#0047FF" stroke-width="20" stroke-linecap="round" stroke-linejoin="round"/>
<path d="M1071.69 1339.72L871.289 1321.17" stroke="#0047FF" stroke-width="20" stroke-linecap="round" stroke-linejoin="round"/>
<path d="M641.393 1695.22L445.983 1681.53" stroke="#0047FF" stroke-width="20" stroke-linecap="round" stroke-linejoin="round"/>
<path d="M607.798 2084.01L412.56 2068.37" stroke="#0047FF" stroke-width="20" stroke-linecap="round" stroke-linejoin="round"/>
<path d="M588.883 2282.91L395.771 2265.48" stroke="#0047FF" stroke-width="20" stroke-linecap="round" stroke-linejoin="round"/>
<path d="M786.798 2301.74L593.687 2284.31" stroke="#0047FF" stroke-width="20" stroke-linecap="round" stroke-linejoin="round"/>
<path d="M984.525 2317.1L785.82 2301.64" stroke="#0047FF" stroke-width="20" stroke-linecap="round" stroke-linejoin="round"/>
<path d="M412.56 2068.37L429.983 1875.26" stroke="#0047FF" stroke-width="20" stroke-linecap="round" stroke-linejoin="round"/>
<path d="M323.867 1961.55L340.312 1768.36" stroke="#0047FF" stroke-width="20" stroke-linecap="round" stroke-linejoin="round"/>
<path d="M855.736 1515.43L661.921 1500.41" stroke="#FF0000" stroke-width="20" stroke-linecap="round" stroke-linejoin="round"/>
<path d="M1159.13 1443.97L959.176 1425.95" stroke="#FF0000" stroke-width="20" stroke-linecap="round" stroke-linejoin="round"/>
<path d="M1351.16 1456.86L1159.16 1443.98" stroke="#FF0000" stroke-width="20" stroke-linecap="round" stroke-linejoin="round"/>
<path d="M1318.31 1854.1L1302.93 2046.41" stroke="#FF0000" stroke-width="20" stroke-linecap="round" stroke-linejoin="round"/>
<path d="M1442.53 1566.87L1427.08 1764.67" stroke="#FF0000" stroke-width="20" stroke-linecap="round" stroke-linejoin="round"/>
<path d="M1264.8 1357.15L1248 1548.83" stroke="#FF0000" stroke-width="20" stroke-linecap="round" stroke-linejoin="round"/>
<path d="M554.655 1588.57L537.506 1784.17" stroke="#FF0000" stroke-width="20" stroke-linecap="round" stroke-linejoin="round"/>
<path d="M518.762 1981.1L503.912 2172.96" stroke="#FF0000" stroke-width="20" stroke-linecap="round" stroke-linejoin="round"/>
<path d="M1408.6 1959.58L1427.17 1764.6" stroke="#0047FF" stroke-width="20" stroke-linecap="round" stroke-linejoin="round"/>
<path d="M661.921 1500.41L749.362 1604.65" stroke="#0047FF" stroke-width="20" stroke-linecap="round" stroke-linejoin="round"/>
<path d="M766.511 1409.05L855.736 1515.43" stroke="#0047FF" stroke-width="20" stroke-linecap="round" stroke-linejoin="round"/>
<path d="M1248.53 1548.39L1353.31 1460.5" stroke="#0047FF" stroke-width="20" stroke-linecap="round" stroke-linejoin="round"/>
<path d="M1320.71 1854.8L1408.6 1959.58" stroke="#0047FF" stroke-width="20" stroke-linecap="round" stroke-linejoin="round"/>
<path d="M445.622 1680.02L340.312 1768.36" stroke="#0047FF" stroke-width="20" stroke-linecap="round" stroke-linejoin="round"/>
<path d="M503.913 2172.96L595.815 2282.53" stroke="#0047FF" stroke-width="20" stroke-linecap="round" stroke-linejoin="round"/>
</g>
</svg>
