<svg width="446" height="658" viewBox="0 0 446 658" fill="none" xmlns="http://www.w3.org/2000/svg">
<path d="M77.9789 77.2578L148.877 5.99988" stroke="white" stroke-width="10.3512" stroke-linecap="round" stroke-linejoin="round"/>
<path d="M365.889 222.293L365.889 294.99" stroke="white" stroke-width="10.3512" stroke-linecap="round" stroke-linejoin="round"/>
<path d="M437.867 292.831L437.867 365.529" stroke="white" stroke-width="10.3512" stroke-linecap="round" stroke-linejoin="round"/>
<path d="M6.35938 148.155L77.9772 147.792" stroke="white" stroke-width="10.3512" stroke-linecap="round" stroke-linejoin="round"/>
<path d="M149.234 363.369H221.932" stroke="white" stroke-width="10.3512" stroke-linecap="round" stroke-linejoin="round"/>
<path d="M221.934 292.111H294.631" stroke="white" stroke-width="10.3512" stroke-linecap="round" stroke-linejoin="round"/>
<path d="M6 292.111H78.6975" stroke="white" stroke-width="10.3512" stroke-linecap="round" stroke-linejoin="round"/>
<path d="M364.809 291.752H437.506" stroke="white" stroke-width="10.3512" stroke-linecap="round" stroke-linejoin="round"/>
<path d="M78.6973 76.1787H149.955" stroke="white" stroke-width="10.3512" stroke-linecap="round" stroke-linejoin="round"/>
<path d="M367.688 507.324H440.385" stroke="white" stroke-width="10.3512" stroke-linecap="round" stroke-linejoin="round"/>
<path d="M292.832 76.8984L364.81 77.0868" stroke="white" stroke-width="10.3512" stroke-linecap="round" stroke-linejoin="round"/>
<path d="M366.609 221.933L438.587 222.121" stroke="white" stroke-width="10.3512" stroke-linecap="round" stroke-linejoin="round"/>
<path d="M151.035 291.392L219.054 291.74" stroke="white" stroke-width="10.3512" stroke-linecap="round" stroke-linejoin="round"/>
<path d="M365.889 364.089L437.866 364.277" stroke="white" stroke-width="10.3512" stroke-linecap="round" stroke-linejoin="round"/>
<path d="M6.35938 436.427L77.9772 436.067" stroke="white" stroke-width="10.3512" stroke-linecap="round" stroke-linejoin="round"/>
<path d="M6 507.324L77.9775 507.513" stroke="white" stroke-width="10.3512" stroke-linecap="round" stroke-linejoin="round"/>
<path d="M293.912 580.022L365.89 580.211" stroke="white" stroke-width="10.3512" stroke-linecap="round" stroke-linejoin="round"/>
<path d="M366.969 435.706L438.946 435.894" stroke="white" stroke-width="10.3512" stroke-linecap="round" stroke-linejoin="round"/>
<path d="M438.945 149.236L438.945 221.934" stroke="white" stroke-width="10.3512" stroke-linecap="round" stroke-linejoin="round"/>
<path d="M6 148.155L6 220.853" stroke="white" stroke-width="10.3512" stroke-linecap="round" stroke-linejoin="round"/>
<path d="M6 290.672L6 363.369" stroke="white" stroke-width="10.3512" stroke-linecap="round" stroke-linejoin="round"/>
<path d="M365.889 292.831L365.889 363.009" stroke="white" stroke-width="10.3512" stroke-linecap="round" stroke-linejoin="round"/>
<path d="M77.9785 365.889L77.9785 438.586" stroke="white" stroke-width="10.3512" stroke-linecap="round" stroke-linejoin="round"/>
<path d="M6.35938 436.067L5.99949 507.685" stroke="white" stroke-width="10.3512" stroke-linecap="round" stroke-linejoin="round"/>
<path d="M152.115 583.261L152.115 650.56" stroke="white" stroke-width="10.3512" stroke-linecap="round" stroke-linejoin="round"/>
<path d="M437.867 364.809V435.707" stroke="white" stroke-width="10.3512" stroke-linecap="round" stroke-linejoin="round"/>
<path d="M365.889 436.067L365.889 578.223" stroke="white" stroke-width="10.3512" stroke-linecap="round" stroke-linejoin="round"/>
<path d="M77.9785 508.044L77.9785 578.222" stroke="white" stroke-width="10.3512" stroke-linecap="round" stroke-linejoin="round"/>
<path d="M149.955 6.71973V75.0986" stroke="white" stroke-width="10.3512" stroke-linecap="round" stroke-linejoin="round"/>
<path d="M77.9785 75.8184L77.9785 148.516" stroke="white" stroke-width="10.3512" stroke-linecap="round" stroke-linejoin="round"/>
<path d="M293.912 6V76.898" stroke="white" stroke-width="10.3512" stroke-linecap="round" stroke-linejoin="round"/>
<path d="M6 219.054L6 291.751" stroke="white" stroke-width="10.3512" stroke-linecap="round" stroke-linejoin="round"/>
<path d="M77.9785 291.752L77.9785 364.449" stroke="white" stroke-width="10.3512" stroke-linecap="round" stroke-linejoin="round"/>
<path d="M221.934 291.392L221.934 363.369" stroke="white" stroke-width="10.3512" stroke-linecap="round" stroke-linejoin="round"/>
<path d="M294.271 579.303L294.271 652" stroke="white" stroke-width="10.3512" stroke-linecap="round" stroke-linejoin="round"/>
<path d="M79.057 363.01L149.955 291.752" stroke="white" stroke-width="10.3512" stroke-linecap="round" stroke-linejoin="round"/>
<path d="M294.99 363.369L364.809 292.111" stroke="white" stroke-width="10.3512" stroke-linecap="round" stroke-linejoin="round"/>
<path d="M222.653 650.561L293.551 579.303" stroke="white" stroke-width="10.3512" stroke-linecap="round" stroke-linejoin="round"/>
<path d="M294.27 652L367.687 580.742" stroke="white" stroke-width="10.3512" stroke-linecap="round" stroke-linejoin="round"/>
<path d="M369.487 579.303L440.385 508.045" stroke="white" stroke-width="10.3512" stroke-linecap="round" stroke-linejoin="round"/>
<path d="M220.495 77.2578L293.912 5.99987" stroke="white" stroke-width="10.3512" stroke-linecap="round" stroke-linejoin="round"/>
<path d="M6.35976 147.796L77.2578 76.538" stroke="white" stroke-width="10.3512" stroke-linecap="round" stroke-linejoin="round"/>
<path d="M6.00038 291.752L76.8984 220.494" stroke="white" stroke-width="10.3512" stroke-linecap="round" stroke-linejoin="round"/>
<path d="M221.934 364.089L293.912 292.831" stroke="white" stroke-width="10.3512" stroke-linecap="round" stroke-linejoin="round"/>
<path d="M367.688 507.685L438.586 436.427" stroke="white" stroke-width="10.3512" stroke-linecap="round" stroke-linejoin="round"/>
<path d="M152.114 651.641L223.012 580.383" stroke="white" stroke-width="10.3512" stroke-linecap="round" stroke-linejoin="round"/>
<path d="M7.08046 435.348L77.9785 364.09" stroke="white" stroke-width="10.3512" stroke-linecap="round" stroke-linejoin="round"/>
<path d="M223.373 580.742L294.271 652" stroke="white" stroke-width="10.3512" stroke-linecap="round" stroke-linejoin="round"/>
<path d="M79.7777 580.742L150.676 652" stroke="white" stroke-width="10.3512" stroke-linecap="round" stroke-linejoin="round"/>
<path d="M365.889 78.7535L438.275 148.5" stroke="white" stroke-width="10.3512" stroke-linecap="round" stroke-linejoin="round"/>
<path d="M293.911 291.752L365.889 364.09" stroke="white" stroke-width="10.3512" stroke-linecap="round" stroke-linejoin="round"/>
<path d="M150.675 76.5381L222.293 6.7197" stroke="white" stroke-width="10.3512" stroke-linecap="round" stroke-linejoin="round"/>
<path d="M219.773 77.2578L149.955 5.99987" stroke="white" stroke-width="10.3512" stroke-linecap="round" stroke-linejoin="round"/>
<path d="M293.191 77.9775L222.293 6.71961" stroke="white" stroke-width="10.3512" stroke-linecap="round" stroke-linejoin="round"/>
<path d="M364.81 77.2578L293.912 5.99988" stroke="white" stroke-width="10.3512" stroke-linecap="round" stroke-linejoin="round"/>
<path d="M148.877 363.01L77.9785 291.752" stroke="white" stroke-width="10.3512" stroke-linecap="round" stroke-linejoin="round"/>
<path d="M222.294 650.561L152.115 581.822" stroke="white" stroke-width="10.3512" stroke-linecap="round" stroke-linejoin="round"/>
<path d="M437.866 291.752L365.889 221.934" stroke="white" stroke-width="10.3512" stroke-linecap="round" stroke-linejoin="round"/>
<path d="M77.9772 580.742L6.35938 508.405" stroke="white" stroke-width="10.3512" stroke-linecap="round" stroke-linejoin="round"/>
<path d="M365.889 77.9775L365.889 149.235" stroke="white" stroke-width="10.3512" stroke-linecap="round" stroke-linejoin="round"/>
<path d="M365.889 149.236H438.586" stroke="white" stroke-width="10.3512" stroke-linecap="round" stroke-linejoin="round"/>
<path d="M78.6973 580.742H151.395" stroke="white" stroke-width="10.3512" stroke-linecap="round" stroke-linejoin="round"/>
</svg>
